<svg width="32" height="32" viewBox="0 0 32 32" fill="none" xmlns="http://www.w3.org/2000/svg">
  <rect width="32" height="32" rx="6" fill="#050508"/>
  <ellipse cx="16" cy="8" rx="4.5" ry="4" fill="#c04848"/>
  <ellipse cx="12.5" cy="5.5" rx="1.3" ry="2" fill="#c04848"/>
  <ellipse cx="19.5" cy="5.5" rx="1.3" ry="2" fill="#c04848"/>
  <line x1="13.2" y1="4.5" x2="12.8" y2="2.5" stroke="#c04848" stroke-width="1.2" stroke-linecap="round"/>
  <line x1="18.8" y1="4.5" x2="19.2" y2="2.5" stroke="#c04848" stroke-width="1.2" stroke-linecap="round"/>
  <circle cx="12.8" cy="2.3" r="0.7" fill="#40c8c8"/>
  <circle cx="19.2" cy="2.3" r="0.7" fill="#40c8c8"/>
  <circle cx="14.5" cy="7.8" r="0.9" fill="#050508"/>
  <circle cx="17.5" cy="7.8" r="0.9" fill="#050508"/>
  <circle cx="14.5" cy="7.8" r="0.5" fill="#40c8c8"/>
  <circle cx="17.5" cy="7.8" r="0.5" fill="#40c8c8"/>
  <path d="M14 11.5 Q13.5 17 14 23 L18 23 Q18.5 17 18 11.5" fill="#c04848"/>
  <line x1="15" y1="13" x2="15" y2="17" stroke="#40c8c8" stroke-width="0.4" opacity="0.4"/>
  <line x1="17" y1="15" x2="17" y2="20" stroke="#40c8c8" stroke-width="0.4" opacity="0.4"/>
  <ellipse cx="16" cy="26" rx="7" ry="4" fill="#c04848"/>
  <rect x="11" y="28.5" width="2" height="3" rx="0.8" fill="#c04848"/>
  <rect x="14" y="28.5" width="2" height="2.5" rx="0.8" fill="#c04848"/>
  <rect x="16.5" y="28.5" width="2" height="2.5" rx="0.8" fill="#c04848"/>
  <rect x="19" y="28.5" width="2" height="3" rx="0.8" fill="#c04848"/>
</svg>
